<svg width="76" height="12" viewBox="0 0 76 12" fill="none" xmlns="http://www.w3.org/2000/svg">
<path d="M0.112671 11.3479H2.186V8.56111L3.2059 7.31615L5.89213 11.3479H8.37247L4.69027 5.93234L8.32937 1.54148H5.84425L2.31528 5.8653H2.186V1.54148H0.112671V11.3479Z" fill="#FF577F"/>
<path d="M12.4524 11.4915C14.272 11.4915 15.4978 10.6057 15.7851 9.24104L13.8985 9.11655C13.6926 9.67678 13.1659 9.96886 12.4859 9.96886C11.466 9.96886 10.8196 9.29371 10.8196 8.1972V8.19241H15.8282V7.63218C15.8282 5.13269 14.3151 3.89731 12.371 3.89731C10.2067 3.89731 8.80375 5.43435 8.80375 7.704C8.80375 10.0359 10.1876 11.4915 12.4524 11.4915ZM10.8196 6.9283C10.8627 6.09035 11.4996 5.41999 12.4045 5.41999C13.2904 5.41999 13.9033 6.05204 13.9081 6.9283H10.8196Z" fill="#FF577F"/>
<path d="M19.4688 7.09589C19.4736 6.14781 20.0386 5.59237 20.8622 5.59237C21.681 5.59237 22.1742 6.12866 22.1694 7.02885V11.3479H24.2092V6.66494C24.2092 4.95074 23.2037 3.89731 21.6714 3.89731C20.5797 3.89731 19.7896 4.4336 19.4592 5.29071H19.373V3.99308H17.429V11.3479H19.4688V7.09589Z" fill="#FF577F"/>
<path d="M26.0482 11.3479H32.2299V9.71987H28.7249V9.6672L32.1054 5.31944V3.99308H26.1727V5.6211H29.649V5.67377L26.0482 10.1317V11.3479Z" fill="#FF577F"/>
<path d="M34.0594 11.3479H36.0992V3.99308H34.0594V11.3479ZM35.0841 3.045C35.6922 3.045 36.1902 2.58054 36.1902 2.01073C36.1902 1.44571 35.6922 0.981247 35.0841 0.981247C34.4807 0.981247 33.9828 1.44571 33.9828 2.01073C33.9828 2.58054 34.4807 3.045 35.0841 3.045Z" fill="#FF577F"/>
<path d="M41.3547 11.4915C43.1742 11.4915 44.4 10.6057 44.6873 9.24104L42.8007 9.11655C42.5948 9.67678 42.0681 9.96886 41.3882 9.96886C40.3683 9.96886 39.7219 9.29371 39.7219 8.1972V8.19241H44.7304V7.63218C44.7304 5.13269 43.2173 3.89731 41.2733 3.89731C39.109 3.89731 37.706 5.43435 37.706 7.704C37.706 10.0359 39.0898 11.4915 41.3547 11.4915ZM39.7219 6.9283C39.7649 6.09035 40.4018 5.41999 41.3068 5.41999C42.1926 5.41999 42.8055 6.05204 42.8103 6.9283H39.7219Z" fill="#FF577F"/>
<path d="M49.76 11.3479H51.8333V7.297H56.0422V11.3479H58.1107V1.54148H56.0422V5.58758H51.8333V1.54148H49.76V11.3479Z" fill="#FF577F"/>
<path d="M64.768 8.21635C64.7728 9.20274 64.0976 9.71987 63.365 9.71987C62.5941 9.71987 62.0961 9.17879 62.0913 8.31211V3.99308H60.0515V8.67602C60.0563 10.395 61.0619 11.4437 62.5414 11.4437C63.6475 11.4437 64.4424 10.8738 64.7728 10.012H64.8494V11.3479H66.8078V3.99308H64.768V8.21635Z" fill="#FF577F"/>
<path d="M68.7474 11.3479H70.7585V10.17H70.8494C71.132 10.7829 71.7496 11.4676 72.9371 11.4676C74.613 11.4676 75.9202 10.1412 75.9202 7.68006C75.9202 5.15184 74.5556 3.89731 72.9419 3.89731C71.7113 3.89731 71.1224 4.62992 70.8494 5.22846H70.7872V1.54148H68.7474V11.3479ZM70.7441 7.67048C70.7441 6.35849 71.2996 5.52054 72.2907 5.52054C73.3011 5.52054 73.8373 6.3968 73.8373 7.67048C73.8373 8.95374 73.2915 9.84437 72.2907 9.84437C71.3091 9.84437 70.7441 8.98248 70.7441 7.67048Z" fill="#FF577F"/>
</svg>
